<svg width="60" height="60" viewBox="0 0 60 60" fill="none" xmlns="http://www.w3.org/2000/svg">
<path d="M41.4539 39.8581H18.8865C18.4298 39.9329 18.0718 40.2909 17.997 40.7476C17.9007 41.3352 18.2989 41.8895 18.8865 41.9858H41.4539C41.5693 42.0047 41.687 42.0047 41.8025 41.9858C42.39 41.8895 42.7883 41.3352 42.692 40.7476C42.5957 40.1601 42.0415 39.7618 41.4539 39.8581Z" fill="white"/>
<path d="M41.4539 18.0427H18.8865C18.4298 18.1175 18.0718 18.4755 17.997 18.9322C17.9007 19.5198 18.2989 20.0741 18.8865 20.1703H41.4539C41.5693 20.1893 41.687 20.1893 41.8025 20.1703C42.39 20.0741 42.7883 19.5198 42.692 18.9322C42.5957 18.3446 42.0415 17.9464 41.4539 18.0427Z" fill="white"/>
<path d="M41.4539 34.4042H18.8865C18.4298 34.4791 18.0718 34.8371 17.997 35.2938C17.9007 35.8814 18.2989 36.4356 18.8865 36.5319H41.4539C41.5693 36.5509 41.687 36.5509 41.8025 36.5319C42.39 36.4356 42.7883 35.8814 42.692 35.2938C42.5957 34.7062 42.0415 34.308 41.4539 34.4042Z" fill="white"/>
<path d="M41.0142 0.333333C40.8112 0.124645 40.5323 0.00691489 40.2411 0.0070922H12.0142V0C9.20745 0.00390071 6.93298 2.27837 6.92908 5.08511V54.9149C6.93298 57.7216 9.20745 59.9961 12.0142 60H47.9858C50.7926 59.9961 53.067 57.7216 53.0709 54.9149V13.156V13.1064V13.0567V12.9787V12.539V12.3901L41.0142 0.333333ZM41.3191 3.69504L49.7234 12.0993H43.5816C42.3353 12.0915 41.327 11.0832 41.3191 9.83688V3.69504ZM51.2482 54.9149C51.2404 56.5254 49.9367 57.8291 48.3262 57.8369H12.0142C10.4037 57.8291 9.1 56.5254 9.0922 54.9149V5.08511C9.1 3.47465 10.4037 2.17092 12.0142 2.16312H39.156V9.80142C39.1599 12.244 41.139 14.223 43.5816 14.227H51.2482V54.9149Z" fill="white"/>
<path d="M41.4539 23.4965H18.8865C18.7711 23.4776 18.6534 23.4776 18.5379 23.4965C17.9503 23.5928 17.5521 24.1471 17.6484 24.7346C17.7447 25.3222 18.2989 25.7205 18.8865 25.6242H41.4539C41.5693 25.6432 41.687 25.6432 41.8025 25.6242C42.3901 25.5279 42.7883 24.9737 42.692 24.3861C42.5957 23.7985 42.0415 23.4003 41.4539 23.4965Z" fill="white"/>
<path d="M41.4539 28.9504H18.8865C18.4298 29.0252 18.0718 29.3832 17.997 29.8399C17.9007 30.4275 18.2989 30.9818 18.8865 31.078H41.4539C41.5693 31.097 41.687 31.097 41.8025 31.078C42.39 30.9818 42.7883 30.4275 42.692 29.8399C42.5957 29.2523 42.0415 28.8541 41.4539 28.9504Z" fill="white"/>
</svg>
